# xmcd
#
# Track frame offsets: 
#        150
#        19354
#        36953
#        54132
#        76786
#        101765
#        119474
#        143928
#        166882
#        183611
#        204015
#        221719
#        249623
#        265827
#        284806
#
# Disc length: 9558 seconds
#
# Revision: 0
# Processed by: cddbd v1.5.2PL0 Copyright (c) Steve Scherf et al.
# Submitted via: ExactAudioCopy v0.99pb5
#
DISCID=dc25540f
DTITLE=Joe Cocker - Fmous
DYEAR=1997
DGENRE=Blues
TTITLE0=Could You Be Loved
TTITLE1=Don't Let Me Be Misunderstood
TTITLE2=Human Touch
TTITLE3=You've Got To Hide Your Love Away
TTITLE4=Don't Let The Sun Go Down On Me
TTITLE5=Summer In The City
TTITLE6=A Whiter Shade Of Pale
TTITLE7=Let It Be
TTITLE8=Many Rivers To Cross
TTITLE9=I Heard It Through The Grapevine
TTITLE10=Can't Find My Way Home
TTITLE11=St. James Infirmary Blues
TTITLE12=Something
TTITLE13=The Letter
TTITLE14=With A Little Help From My Friends
EXTD=
EXTT0=
EXTT1=
EXTT2=
EXTT3=
EXTT4=
EXTT5=
EXTT6=
EXTT7=
EXTT8=
EXTT9=
EXTT10=
EXTT11=
EXTT12=
EXTT13=
EXTT14=
PLAYORDER=
